<svg width="18" height="18" viewBox="0 0 18 18" fill="none" xmlns="http://www.w3.org/2000/svg">
  <g clip-path="url(#clip0_1792_25505)">
    <path d="M9.00004 15.4891C9.34247 15.4943 9.67933 15.4009 9.9716 15.2198C10.2639 15.0387 10.4996 14.7773 10.6514 14.4659L15.3142 5.25377C15.4594 4.96669 15.5295 4.64657 15.5177 4.32411C15.506 4.00165 15.4127 3.68766 15.2469 3.41228C15.0811 3.1369 14.8484 2.90936 14.571 2.75148C14.2936 2.59361 13.9808 2.51069 13.6628 2.5107L4.33732 2.5107C4.01925 2.51069 3.70651 2.59361 3.42911 2.75148C3.15171 2.90936 2.91895 3.1369 2.75317 3.41228C2.58738 3.68766 2.49413 4.00165 2.48236 4.32411C2.47058 4.64657 2.54068 4.96669 2.68594 5.25377L7.34866 14.4666C7.50059 14.7779 7.73634 15.0391 8.0286 15.2201C8.32087 15.401 8.65768 15.4943 9.00004 15.4891ZM9.00004 17.9999C8.20263 18.0056 7.41948 17.7854 6.73878 17.3639C6.05808 16.9425 5.50687 16.3367 5.14723 15.6146L0.484505 6.40246C0.145117 5.73258 -0.0188408 4.98545 0.00836754 4.23277C0.0355778 3.4801 0.25304 2.74715 0.639885 2.1043C1.02673 1.46144 1.56997 0.930265 2.21744 0.56175C2.86492 0.193235 3.59491 -0.000240326 4.33732 -0.000106812H13.6628C14.4052 -0.000240326 15.1352 0.193235 15.7826 0.56175C16.4301 0.930265 16.9734 1.46144 17.3602 2.1043C17.747 2.74715 17.9645 3.4801 17.9917 4.23277C18.0189 4.98545 17.855 5.73258 17.5156 6.40246L12.8529 15.6146C12.4932 16.3367 11.942 16.9425 11.2613 17.3639C10.5806 17.7854 9.79746 18.0056 9.00004 17.9999Z" fill="#6B66FA" />
  </g>
  <defs>
    <clipPath id="clip0_1792_25505">
      <rect width="18" height="18" fill="white" />
    </clipPath>
  </defs>
</svg>